<svg xmlns="http://www.w3.org/2000/svg" width="324" height="368" viewBox="0 0 324 368" fill="none"><path d="M0 111.651V255.549C0 269.741 7.44527 282.833 19.5672 289.929L142.433 361.878C154.555 368.974 169.445 368.974 181.567 361.878L304.433 289.929C316.555 282.833 324 269.741 324 255.549V111.651C324 97.4589 316.555 84.367 304.433 77.2708L181.567 5.32215C169.445 -1.77405 154.555 -1.77405 142.433 5.32215L19.5672 77.2708C7.44527 84.367 0 97.4589 0 111.651Z" fill="url(#paint0_linear_2_3228)" fill-opacity="0.08"></path><path d="M28.1743 124.164V243.036C28.1743 254.76 34.3247 265.575 44.3385 271.437L145.836 330.873C155.85 336.735 168.151 336.735 178.165 330.873L279.662 271.437C289.676 265.575 295.826 254.76 295.826 243.036V124.164C295.826 112.44 289.676 101.625 279.662 95.7631L178.165 36.3272C168.151 30.4651 155.85 30.4651 145.836 36.3272L44.3385 95.7631C34.3247 101.625 28.1743 112.44 28.1743 124.164Z" fill="url(#paint1_linear_2_3228)" fill-opacity="0.15"></path><path d="M51.6511 134.469V232.731C51.6511 242.423 56.7225 251.363 64.9794 256.208L148.67 305.34C156.927 310.185 167.07 310.185 175.327 305.34L259.018 256.208C267.275 251.363 272.347 242.423 272.347 232.731V134.469C272.347 124.777 267.275 115.837 259.018 110.992L175.327 61.8604C167.07 57.0146 156.927 57.0146 148.67 61.8604L64.9794 110.992C56.7225 115.837 51.6511 124.777 51.6511 134.469Z" fill="url(#paint2_linear_2_3228)" fill-opacity="0.15"></path><path d="M76.0682 145.509V221.69C76.0682 229.204 80.0174 236.135 86.4473 239.892L151.619 277.982C158.049 281.739 165.948 281.739 172.378 277.982L237.55 239.892C243.98 236.135 247.929 229.204 247.929 221.69V145.509C247.929 137.996 243.98 131.065 237.55 127.308L172.378 89.2175C165.948 85.4607 158.049 85.4607 151.619 89.2175L86.4473 127.308C80.0174 131.065 76.0682 137.996 76.0682 145.509Z" fill="url(#paint3_linear_2_3228)" fill-opacity="0.35"></path><path d="M95.7917 154.71V212.49C95.7917 218.188 98.8345 223.445 103.789 226.295L154.003 255.184C158.958 258.034 165.043 258.034 169.997 255.184L220.212 226.295C225.166 223.445 228.209 218.188 228.209 212.49V154.71C228.209 149.011 225.166 143.754 220.212 140.905L169.997 112.015C165.043 109.166 158.958 109.166 154.003 112.015L103.789 140.905C98.8345 143.754 95.7917 149.011 95.7917 154.71Z" fill="url(#paint4_linear_2_3228)" fill-opacity="0.45"></path><path d="M148.5 216C149.82 198.567 157.216 182.367 167.957 166.167H141.632V154.37H181.692V166.167C170.686 182.367 163.203 198.479 161.97 216H148.5Z" fill="white" style="fill:white;fill-opacity:1;"></path><defs><linearGradient id="paint0_linear_2_3228" x1="0" y1="183.6" x2="324" y2="183.6" gradientUnits="userSpaceOnUse"><stop stop-color="#6BE8EE" style="stop-color:#6BE8EE;stop-color:color(display-p3 0.4196 0.9098 0.9333);stop-opacity:1;"></stop><stop offset="1" stop-color="#5AC48C" style="stop-color:#5AC48C;stop-color:color(display-p3 0.3529 0.7686 0.5490);stop-opacity:1;"></stop></linearGradient><linearGradient id="paint1_linear_2_3228" x1="28.1743" y1="183.6" x2="295.826" y2="183.6" gradientUnits="userSpaceOnUse"><stop stop-color="#6BE8EE" style="stop-color:#6BE8EE;stop-color:color(display-p3 0.4196 0.9098 0.9333);stop-opacity:1;"></stop><stop offset="1" stop-color="#5AC48C" style="stop-color:#5AC48C;stop-color:color(display-p3 0.3529 0.7686 0.5490);stop-opacity:1;"></stop></linearGradient><linearGradient id="paint2_linear_2_3228" x1="51.6511" y1="183.6" x2="272.347" y2="183.6" gradientUnits="userSpaceOnUse"><stop stop-color="#6BE8EE" style="stop-color:#6BE8EE;stop-color:color(display-p3 0.4196 0.9098 0.9333);stop-opacity:1;"></stop><stop offset="1" stop-color="#5AC48C" style="stop-color:#5AC48C;stop-color:color(display-p3 0.3529 0.7686 0.5490);stop-opacity:1;"></stop></linearGradient><linearGradient id="paint3_linear_2_3228" x1="76.0682" y1="183.6" x2="247.929" y2="183.6" gradientUnits="userSpaceOnUse"><stop stop-color="#6BE8EE" style="stop-color:#6BE8EE;stop-color:color(display-p3 0.4196 0.9098 0.9333);stop-opacity:1;"></stop><stop offset="1" stop-color="#5AC48C" style="stop-color:#5AC48C;stop-color:color(display-p3 0.3529 0.7686 0.5490);stop-opacity:1;"></stop></linearGradient><linearGradient id="paint4_linear_2_3228" x1="95.7917" y1="183.6" x2="228.209" y2="183.6" gradientUnits="userSpaceOnUse"><stop stop-color="#6BE8EE" style="stop-color:#6BE8EE;stop-color:color(display-p3 0.4196 0.9098 0.9333);stop-opacity:1;"></stop><stop offset="1" stop-color="#5AC48C" style="stop-color:#5AC48C;stop-color:color(display-p3 0.3529 0.7686 0.5490);stop-opacity:1;"></stop></linearGradient></defs></svg>