<svg xmlns="http://www.w3.org/2000/svg" width="1438" height="1442" viewBox="0 0 1438 1442" fill="none"><g style="mix-blend-mode:plus-lighter"><rect x="-0.533207" y="0.533207" width="860.595" height="860.595" rx="430.298" transform="matrix(-1 8.74228e-08 8.74228e-08 1 1148.06 289.678)" fill="#6BE8EE" fill-opacity="0.08" stroke="#5AC48C" style="fill:#6BE8EE;fill:color(display-p3 0.4196 0.9098 0.9333);fill-opacity:0.08;stroke:#5AC48C;stroke:color(display-p3 0.3529 0.7686 0.5490);stroke-opacity:1;" stroke-width="1.06641"></rect><foreignObject x="1134.2" y="705.58" width="29.8595" height="29.8595"></foreignObject><rect data-figma-bg-blur-radius="10.6641" x="-0.533207" y="0.533207" width="7.46489" height="7.46489" rx="3.73245" transform="matrix(-1 8.74228e-08 8.74228e-08 1 1152.33 716.244)" fill="#5AC48C" stroke="#5AC48C" style="fill:#5AC48C;fill:color(display-p3 0.3529 0.7686 0.5490);fill-opacity:1;stroke:#5AC48C;stroke:color(display-p3 0.3529 0.7686 0.5490);stroke-opacity:1;" stroke-width="1.06641"></rect><foreignObject x="1007.58" y="401.364" width="29.8595" height="29.8595"></foreignObject><rect data-figma-bg-blur-radius="10.6641" x="-0.533207" y="0.533207" width="7.46489" height="7.46489" rx="3.73245" transform="matrix(-1 8.74228e-08 8.74228e-08 1 1025.71 412.028)" fill="#5AC48C" stroke="#5AC48C" style="fill:#5AC48C;fill:color(display-p3 0.3529 0.7686 0.5490);fill-opacity:1;stroke:#5AC48C;stroke:color(display-p3 0.3529 0.7686 0.5490);stroke-opacity:1;" stroke-width="1.06641"></rect><foreignObject x="1007.58" y="1009.8" width="29.8595" height="29.8595"></foreignObject><rect data-figma-bg-blur-radius="10.6641" x="-0.533207" y="0.533207" width="7.46489" height="7.46489" rx="3.73245" transform="matrix(-1 8.74228e-08 8.74228e-08 1 1025.71 1020.46)" fill="#5AC48C" stroke="#5AC48C" style="fill:#5AC48C;fill:color(display-p3 0.3529 0.7686 0.5490);fill-opacity:1;stroke:#5AC48C;stroke:color(display-p3 0.3529 0.7686 0.5490);stroke-opacity:1;" stroke-width="1.06641"></rect><foreignObject x="703.365" y="274.748" width="29.8595" height="29.8595"></foreignObject><rect data-figma-bg-blur-radius="10.6641" x="-0.533207" y="0.533207" width="7.46489" height="7.46489" rx="3.73245" transform="matrix(-1 8.74228e-08 8.74228e-08 1 721.494 285.413)" fill="#5AC48C" stroke="#5AC48C" style="fill:#5AC48C;fill:color(display-p3 0.3529 0.7686 0.5490);fill-opacity:1;stroke:#5AC48C;stroke:color(display-p3 0.3529 0.7686 0.5490);stroke-opacity:1;" stroke-width="1.06641"></rect><foreignObject x="703.365" y="1136.41" width="29.8595" height="29.8595"></foreignObject><rect data-figma-bg-blur-radius="10.6641" x="-0.533207" y="0.533207" width="7.46489" height="7.46489" rx="3.73245" transform="matrix(-1 8.74228e-08 8.74228e-08 1 721.494 1147.07)" fill="#5AC48C" stroke="#5AC48C" style="fill:#5AC48C;fill:color(display-p3 0.3529 0.7686 0.5490);fill-opacity:1;stroke:#5AC48C;stroke:color(display-p3 0.3529 0.7686 0.5490);stroke-opacity:1;" stroke-width="1.06641"></rect><foreignObject x="399.148" y="401.364" width="29.8595" height="29.8595"></foreignObject><rect data-figma-bg-blur-radius="10.6641" x="-0.533207" y="0.533207" width="7.46489" height="7.46489" rx="3.73245" transform="matrix(-1 8.74228e-08 8.74228e-08 1 417.277 412.028)" fill="#5AC48C" stroke="#5AC48C" style="fill:#5AC48C;fill:color(display-p3 0.3529 0.7686 0.5490);fill-opacity:1;stroke:#5AC48C;stroke:color(display-p3 0.3529 0.7686 0.5490);stroke-opacity:1;" stroke-width="1.06641"></rect><foreignObject x="399.148" y="1009.8" width="29.8595" height="29.8595"></foreignObject><rect data-figma-bg-blur-radius="10.6641" x="-0.533207" y="0.533207" width="7.46489" height="7.46489" rx="3.73245" transform="matrix(-1 8.74228e-08 8.74228e-08 1 417.277 1020.46)" fill="#5AC48C" stroke="#5AC48C" style="fill:#5AC48C;fill:color(display-p3 0.3529 0.7686 0.5490);fill-opacity:1;stroke:#5AC48C;stroke:color(display-p3 0.3529 0.7686 0.5490);stroke-opacity:1;" stroke-width="1.06641"></rect><foreignObject x="272.535" y="705.58" width="29.8595" height="29.8595"></foreignObject><rect data-figma-bg-blur-radius="10.6641" x="-0.533207" y="0.533207" width="7.46489" height="7.46489" rx="3.73245" transform="matrix(-1 8.74228e-08 8.74228e-08 1 290.664 716.244)" fill="#5AC48C" stroke="#5AC48C" style="fill:#5AC48C;fill:color(display-p3 0.3529 0.7686 0.5490);fill-opacity:1;stroke:#5AC48C;stroke:color(display-p3 0.3529 0.7686 0.5490);stroke-opacity:1;" stroke-width="1.06641"></rect><g opacity="0.6"><rect x="-0.653042" y="0.377034" width="647.313" height="647.313" rx="323.656" transform="matrix(-0.965926 -0.258819 -0.258819 0.965926 1114.25 490.401)" fill="#6BE8EE" fill-opacity="0.08" stroke="#5AC48C" style="fill:#6BE8EE;fill:color(display-p3 0.4196 0.9098 0.9333);fill-opacity:0.08;stroke:#5AC48C;stroke:color(display-p3 0.3529 0.7686 0.5490);stroke-opacity:1;" stroke-width="1.06641"></rect><foreignObject x="1016.59" y="788.77" width="29.8615" height="29.862"></foreignObject><rect data-figma-bg-blur-radius="10.6641" x="-0.653042" y="0.377034" width="7.46489" height="7.46489" rx="3.73245" transform="matrix(-0.965926 -0.258819 -0.258819 0.965926 1035.56 800.528)" fill="#5AC48C" stroke="#5AC48C" style="fill:#5AC48C;fill:color(display-p3 0.3529 0.7686 0.5490);fill-opacity:1;stroke:#5AC48C;stroke:color(display-p3 0.3529 0.7686 0.5490);stroke-opacity:1;" stroke-width="1.06641"></rect><foreignObject x="983.321" y="543.281" width="29.862" height="29.8617"></foreignObject><rect data-figma-bg-blur-radius="10.6641" x="-0.653042" y="0.377034" width="7.46489" height="7.46489" rx="3.73245" transform="matrix(-0.965926 -0.258819 -0.258819 0.965926 1002.29 555.04)" fill="#5AC48C" stroke="#5AC48C" style="fill:#5AC48C;fill:color(display-p3 0.3529 0.7686 0.5490);fill-opacity:1;stroke:#5AC48C;stroke:color(display-p3 0.3529 0.7686 0.5490);stroke-opacity:1;" stroke-width="1.06641"></rect><foreignObject x="865.034" y="984.73" width="29.862" height="29.862"></foreignObject><rect data-figma-bg-blur-radius="10.6641" x="-0.653042" y="0.377034" width="7.46489" height="7.46489" rx="3.73245" transform="matrix(-0.965926 -0.258819 -0.258819 0.965926 884.003 996.489)" fill="#5AC48C" stroke="#5AC48C" style="fill:#5AC48C;fill:color(display-p3 0.3529 0.7686 0.5490);fill-opacity:1;stroke:#5AC48C;stroke:color(display-p3 0.3529 0.7686 0.5490);stroke-opacity:1;" stroke-width="1.06641"></rect><foreignObject x="787.358" y="391.72" width="29.862" height="29.8617"></foreignObject><rect data-figma-bg-blur-radius="10.6641" x="-0.653042" y="0.377034" width="7.46489" height="7.46489" rx="3.73245" transform="matrix(-0.965926 -0.258819 -0.258819 0.965926 806.327 403.479)" fill="#5AC48C" stroke="#5AC48C" style="fill:#5AC48C;fill:color(display-p3 0.3529 0.7686 0.5490);fill-opacity:1;stroke:#5AC48C;stroke:color(display-p3 0.3529 0.7686 0.5490);stroke-opacity:1;" stroke-width="1.06641"></rect><foreignObject x="619.545" y="1018.01" width="29.8617" height="29.862"></foreignObject><rect data-figma-bg-blur-radius="10.6641" x="-0.653042" y="0.377034" width="7.46489" height="7.46489" rx="3.73245" transform="matrix(-0.965926 -0.258819 -0.258819 0.965926 638.514 1029.76)" fill="#5AC48C" stroke="#5AC48C" style="fill:#5AC48C;fill:color(display-p3 0.3529 0.7686 0.5490);fill-opacity:1;stroke:#5AC48C;stroke:color(display-p3 0.3529 0.7686 0.5490);stroke-opacity:1;" stroke-width="1.06641"></rect><foreignObject x="541.87" y="424.996" width="29.8617" height="29.8617"></foreignObject><rect data-figma-bg-blur-radius="10.6641" x="-0.653042" y="0.377034" width="7.46489" height="7.46489" rx="3.73245" transform="matrix(-0.965926 -0.258819 -0.258819 0.965926 560.839 436.754)" fill="#5AC48C" stroke="#5AC48C" style="fill:#5AC48C;fill:color(display-p3 0.3529 0.7686 0.5490);fill-opacity:1;stroke:#5AC48C;stroke:color(display-p3 0.3529 0.7686 0.5490);stroke-opacity:1;" stroke-width="1.06641"></rect><foreignObject x="423.585" y="866.445" width="29.8617" height="29.862"></foreignObject><rect data-figma-bg-blur-radius="10.6641" x="-0.653042" y="0.377034" width="7.46489" height="7.46489" rx="3.73245" transform="matrix(-0.965926 -0.258819 -0.258819 0.965926 442.553 878.203)" fill="#5AC48C" stroke="#5AC48C" style="fill:#5AC48C;fill:color(display-p3 0.3529 0.7686 0.5490);fill-opacity:1;stroke:#5AC48C;stroke:color(display-p3 0.3529 0.7686 0.5490);stroke-opacity:1;" stroke-width="1.06641"></rect><foreignObject x="390.309" y="620.956" width="29.8617" height="29.8617"></foreignObject><rect data-figma-bg-blur-radius="10.6641" x="-0.653042" y="0.377034" width="7.46489" height="7.46489" rx="3.73245" transform="matrix(-0.965926 -0.258819 -0.258819 0.965926 409.278 632.715)" fill="#5AC48C" stroke="#5AC48C" style="fill:#5AC48C;fill:color(display-p3 0.3529 0.7686 0.5490);fill-opacity:1;stroke:#5AC48C;stroke:color(display-p3 0.3529 0.7686 0.5490);stroke-opacity:1;" stroke-width="1.06641"></rect></g><rect x="-0.880618" y="0.880618" width="1421.32" height="1421.32" rx="710.659" transform="matrix(-1 8.74228e-08 8.74228e-08 1 1428.36 11.5366)" fill="#6BE8EE" fill-opacity="0.08" stroke="#5AC48C" style="fill:#6BE8EE;fill:color(display-p3 0.4196 0.9098 0.9333);fill-opacity:0.08;stroke:#5AC48C;stroke:color(display-p3 0.3529 0.7686 0.5490);stroke-opacity:1;" stroke-width="1.76124"></rect><foreignObject x="1405.47" y="698.419" width="49.3146" height="49.3146"></foreignObject><rect data-figma-bg-blur-radius="17.6124" x="-0.880618" y="0.880618" width="12.3287" height="12.3287" rx="6.16433" transform="matrix(-1 8.74228e-08 8.74228e-08 1 1435.41 716.032)" fill="#5AC48C" stroke="#5AC48C" style="fill:#5AC48C;fill:color(display-p3 0.3529 0.7686 0.5490);fill-opacity:1;stroke:#5AC48C;stroke:color(display-p3 0.3529 0.7686 0.5490);stroke-opacity:1;" stroke-width="1.76124"></rect><foreignObject x="1196.36" y="195.992" width="49.3146" height="49.3146"></foreignObject><rect data-figma-bg-blur-radius="17.6124" x="-0.880618" y="0.880618" width="12.3287" height="12.3287" rx="6.16433" transform="matrix(-1 8.74228e-08 8.74228e-08 1 1226.3 213.604)" fill="#5AC48C" stroke="#5AC48C" style="fill:#5AC48C;fill:color(display-p3 0.3529 0.7686 0.5490);fill-opacity:1;stroke:#5AC48C;stroke:color(display-p3 0.3529 0.7686 0.5490);stroke-opacity:1;" stroke-width="1.76124"></rect><foreignObject x="1196.36" y="1200.85" width="49.3146" height="49.3146"></foreignObject><rect data-figma-bg-blur-radius="17.6124" x="-0.880618" y="0.880618" width="12.3287" height="12.3287" rx="6.16433" transform="matrix(-1 8.74228e-08 8.74228e-08 1 1226.3 1218.46)" fill="#5AC48C" stroke="#5AC48C" style="fill:#5AC48C;fill:color(display-p3 0.3529 0.7686 0.5490);fill-opacity:1;stroke:#5AC48C;stroke:color(display-p3 0.3529 0.7686 0.5490);stroke-opacity:1;" stroke-width="1.76124"></rect><foreignObject x="693.929" y="-13.1207" width="49.3146" height="49.3146"></foreignObject><rect data-figma-bg-blur-radius="17.6124" x="-0.880618" y="0.880618" width="12.3287" height="12.3287" rx="6.16433" transform="matrix(-1 8.74228e-08 8.74228e-08 1 723.87 4.4917)" fill="#5AC48C" stroke="#5AC48C" style="fill:#5AC48C;fill:color(display-p3 0.3529 0.7686 0.5490);fill-opacity:1;stroke:#5AC48C;stroke:color(display-p3 0.3529 0.7686 0.5490);stroke-opacity:1;" stroke-width="1.76124"></rect><foreignObject x="693.929" y="1409.96" width="49.3146" height="49.3146"></foreignObject><rect data-figma-bg-blur-radius="17.6124" x="-0.880618" y="0.880618" width="12.3287" height="12.3287" rx="6.16433" transform="matrix(-1 8.74228e-08 8.74228e-08 1 723.87 1427.57)" fill="#5AC48C" stroke="#5AC48C" style="fill:#5AC48C;fill:color(display-p3 0.3529 0.7686 0.5490);fill-opacity:1;stroke:#5AC48C;stroke:color(display-p3 0.3529 0.7686 0.5490);stroke-opacity:1;" stroke-width="1.76124"></rect><foreignObject x="191.501" y="195.992" width="49.3146" height="49.3146"></foreignObject><rect data-figma-bg-blur-radius="17.6124" x="-0.880618" y="0.880618" width="12.3287" height="12.3287" rx="6.16433" transform="matrix(-1 8.74228e-08 8.74228e-08 1 221.442 213.604)" fill="#5AC48C" stroke="#5AC48C" style="fill:#5AC48C;fill:color(display-p3 0.3529 0.7686 0.5490);fill-opacity:1;stroke:#5AC48C;stroke:color(display-p3 0.3529 0.7686 0.5490);stroke-opacity:1;" stroke-width="1.76124"></rect><foreignObject x="191.501" y="1200.85" width="49.3146" height="49.3146"></foreignObject><rect data-figma-bg-blur-radius="17.6124" x="-0.880618" y="0.880618" width="12.3287" height="12.3287" rx="6.16433" transform="matrix(-1 8.74228e-08 8.74228e-08 1 221.442 1218.46)" fill="#5AC48C" stroke="#5AC48C" style="fill:#5AC48C;fill:color(display-p3 0.3529 0.7686 0.5490);fill-opacity:1;stroke:#5AC48C;stroke:color(display-p3 0.3529 0.7686 0.5490);stroke-opacity:1;" stroke-width="1.76124"></rect><foreignObject x="-17.6124" y="698.419" width="49.3146" height="49.3146"></foreignObject><rect data-figma-bg-blur-radius="17.6124" x="-0.880618" y="0.880618" width="12.3287" height="12.3287" rx="6.16433" transform="matrix(-1 8.74228e-08 8.74228e-08 1 12.3286 716.032)" fill="#5AC48C" stroke="#5AC48C" style="fill:#5AC48C;fill:color(display-p3 0.3529 0.7686 0.5490);fill-opacity:1;stroke:#5AC48C;stroke:color(display-p3 0.3529 0.7686 0.5490);stroke-opacity:1;" stroke-width="1.76124"></rect><g opacity="0.6"><rect x="-1.17817" y="0.548342" width="1115.55" height="1115.55" rx="557.775" transform="matrix(-0.939442 -0.342707 -0.342707 0.939442 1431.4 389.472)" fill="#6BE8EE" fill-opacity="0.08" stroke="#5AC48C" style="fill:#6BE8EE;fill:color(display-p3 0.4196 0.9098 0.9333);fill-opacity:0.08;stroke:#5AC48C;stroke:color(display-p3 0.3529 0.7686 0.5490);stroke-opacity:1;" stroke-width="1.83781"></rect><foreignObject x="1216.3" y="888.972" width="51.4627" height="51.4622"></foreignObject><rect data-figma-bg-blur-radius="18.3781" x="-1.17817" y="0.548342" width="12.8647" height="12.8647" rx="6.43233" transform="matrix(-0.939442 -0.342707 -0.342707 0.939442 1249.36 909.946)" fill="#5AC48C" stroke="#5AC48C" style="fill:#5AC48C;fill:color(display-p3 0.3529 0.7686 0.5490);fill-opacity:1;stroke:#5AC48C;stroke:color(display-p3 0.3529 0.7686 0.5490);stroke-opacity:1;" stroke-width="1.83781"></rect><foreignObject x="1196.36" y="462.506" width="51.4627" height="51.4627"></foreignObject><rect data-figma-bg-blur-radius="18.3781" x="-1.17817" y="0.548342" width="12.8647" height="12.8647" rx="6.43233" transform="matrix(-0.939442 -0.342707 -0.342707 0.939442 1229.42 483.48)" fill="#5AC48C" stroke="#5AC48C" style="fill:#5AC48C;fill:color(display-p3 0.3529 0.7686 0.5490);fill-opacity:1;stroke:#5AC48C;stroke:color(display-p3 0.3529 0.7686 0.5490);stroke-opacity:1;" stroke-width="1.83781"></rect><foreignObject x="926.44" y="1202.42" width="51.4625" height="51.4622"></foreignObject><rect data-figma-bg-blur-radius="18.3781" x="-1.17817" y="0.548342" width="12.8647" height="12.8647" rx="6.43233" transform="matrix(-0.939442 -0.342707 -0.342707 0.939442 959.499 1223.39)" fill="#5AC48C" stroke="#5AC48C" style="fill:#5AC48C;fill:color(display-p3 0.3529 0.7686 0.5490);fill-opacity:1;stroke:#5AC48C;stroke:color(display-p3 0.3529 0.7686 0.5490);stroke-opacity:1;" stroke-width="1.83781"></rect><foreignObject x="882.91" y="172.642" width="51.4627" height="51.4627"></foreignObject><rect data-figma-bg-blur-radius="18.3781" x="-1.17817" y="0.548342" width="12.8647" height="12.8647" rx="6.43233" transform="matrix(-0.939442 -0.342707 -0.342707 0.939442 915.97 193.616)" fill="#5AC48C" stroke="#5AC48C" style="fill:#5AC48C;fill:color(display-p3 0.3529 0.7686 0.5490);fill-opacity:1;stroke:#5AC48C;stroke:color(display-p3 0.3529 0.7686 0.5490);stroke-opacity:1;" stroke-width="1.83781"></rect><foreignObject x="499.973" y="1222.36" width="51.4627" height="51.4622"></foreignObject><rect data-figma-bg-blur-radius="18.3781" x="-1.17817" y="0.548342" width="12.8647" height="12.8647" rx="6.43233" transform="matrix(-0.939442 -0.342707 -0.342707 0.939442 533.032 1243.34)" fill="#5AC48C" stroke="#5AC48C" style="fill:#5AC48C;fill:color(display-p3 0.3529 0.7686 0.5490);fill-opacity:1;stroke:#5AC48C;stroke:color(display-p3 0.3529 0.7686 0.5490);stroke-opacity:1;" stroke-width="1.83781"></rect><foreignObject x="456.445" y="192.585" width="51.4627" height="51.4627"></foreignObject><rect data-figma-bg-blur-radius="18.3781" x="-1.17817" y="0.548342" width="12.8647" height="12.8647" rx="6.43233" transform="matrix(-0.939442 -0.342707 -0.342707 0.939442 489.505 213.559)" fill="#5AC48C" stroke="#5AC48C" style="fill:#5AC48C;fill:color(display-p3 0.3529 0.7686 0.5490);fill-opacity:1;stroke:#5AC48C;stroke:color(display-p3 0.3529 0.7686 0.5490);stroke-opacity:1;" stroke-width="1.83781"></rect><foreignObject x="186.523" y="932.501" width="51.4627" height="51.4622"></foreignObject><rect data-figma-bg-blur-radius="18.3781" x="-1.17817" y="0.548342" width="12.8647" height="12.8647" rx="6.43233" transform="matrix(-0.939442 -0.342707 -0.342707 0.939442 219.583 953.475)" fill="#5AC48C" stroke="#5AC48C" style="fill:#5AC48C;fill:color(display-p3 0.3529 0.7686 0.5490);fill-opacity:1;stroke:#5AC48C;stroke:color(display-p3 0.3529 0.7686 0.5490);stroke-opacity:1;" stroke-width="1.83781"></rect><foreignObject x="166.582" y="506.035" width="51.4627" height="51.4627"></foreignObject><rect data-figma-bg-blur-radius="18.3781" x="-1.17817" y="0.548342" width="12.8647" height="12.8647" rx="6.43233" transform="matrix(-0.939442 -0.342707 -0.342707 0.939442 199.641 527.01)" fill="#5AC48C" stroke="#5AC48C" style="fill:#5AC48C;fill:color(display-p3 0.3529 0.7686 0.5490);fill-opacity:1;stroke:#5AC48C;stroke:color(display-p3 0.3529 0.7686 0.5490);stroke-opacity:1;" stroke-width="1.83781"></rect></g><rect x="-0.340063" y="0.54299" width="731.198" height="731.198" rx="365.599" transform="matrix(-0.974598 0.223963 0.223963 0.974598 993.144 281.036)" fill="#6BE8EE" fill-opacity="0.08" stroke="#5AC48C" style="fill:#6BE8EE;fill:color(display-p3 0.4196 0.9098 0.9333);fill-opacity:0.08;stroke:#5AC48C;stroke:color(display-p3 0.3529 0.7686 0.5490);stroke-opacity:1;" stroke-width="0.906069"></rect><foreignObject x="1063.23" y="625.014" width="25.3714" height="25.3716"></foreignObject><rect data-figma-bg-blur-radius="9.06069" x="-0.340063" y="0.54299" width="6.34249" height="6.34249" rx="3.17124" transform="matrix(-0.974598 0.223963 0.223963 0.974598 1077.85 633.445)" fill="#5AC48C" stroke="#5AC48C" style="fill:#5AC48C;fill:color(display-p3 0.3529 0.7686 0.5490);fill-opacity:1;stroke:#5AC48C;stroke:color(display-p3 0.3529 0.7686 0.5490);stroke-opacity:1;" stroke-width="0.906069"></rect><foreignObject x="900.499" y="397.199" width="25.3714" height="25.3716"></foreignObject><rect data-figma-bg-blur-radius="9.06069" x="-0.340063" y="0.54299" width="6.34249" height="6.34249" rx="3.17124" transform="matrix(-0.974598 0.223963 0.223963 0.974598 915.112 405.631)" fill="#5AC48C" stroke="#5AC48C" style="fill:#5AC48C;fill:color(display-p3 0.3529 0.7686 0.5490);fill-opacity:1;stroke:#5AC48C;stroke:color(display-p3 0.3529 0.7686 0.5490);stroke-opacity:1;" stroke-width="0.906069"></rect><foreignObject x="1016.28" y="901.015" width="25.3714" height="25.3719"></foreignObject><rect data-figma-bg-blur-radius="9.06069" x="-0.340063" y="0.54299" width="6.34249" height="6.34249" rx="3.17124" transform="matrix(-0.974598 0.223963 0.223963 0.974598 1030.89 909.446)" fill="#5AC48C" stroke="#5AC48C" style="fill:#5AC48C;fill:color(display-p3 0.3529 0.7686 0.5490);fill-opacity:1;stroke:#5AC48C;stroke:color(display-p3 0.3529 0.7686 0.5490);stroke-opacity:1;" stroke-width="0.906069"></rect><foreignObject x="624.497" y="350.241" width="25.3714" height="25.3716"></foreignObject><rect data-figma-bg-blur-radius="9.06069" x="-0.340063" y="0.54299" width="6.34249" height="6.34249" rx="3.17124" transform="matrix(-0.974598 0.223963 0.223963 0.974598 639.11 358.673)" fill="#5AC48C" stroke="#5AC48C" style="fill:#5AC48C;fill:color(display-p3 0.3529 0.7686 0.5490);fill-opacity:1;stroke:#5AC48C;stroke:color(display-p3 0.3529 0.7686 0.5490);stroke-opacity:1;" stroke-width="0.906069"></rect><foreignObject x="788.46" y="1063.75" width="25.3714" height="25.3719"></foreignObject><rect data-figma-bg-blur-radius="9.06069" x="-0.340063" y="0.54299" width="6.34249" height="6.34249" rx="3.17124" transform="matrix(-0.974598 0.223963 0.223963 0.974598 803.073 1072.18)" fill="#5AC48C" stroke="#5AC48C" style="fill:#5AC48C;fill:color(display-p3 0.3529 0.7686 0.5490);fill-opacity:1;stroke:#5AC48C;stroke:color(display-p3 0.3529 0.7686 0.5490);stroke-opacity:1;" stroke-width="0.906069"></rect><foreignObject x="396.681" y="512.975" width="25.3714" height="25.3716"></foreignObject><rect data-figma-bg-blur-radius="9.06069" x="-0.340063" y="0.54299" width="6.34249" height="6.34249" rx="3.17124" transform="matrix(-0.974598 0.223963 0.223963 0.974598 411.294 521.407)" fill="#5AC48C" stroke="#5AC48C" style="fill:#5AC48C;fill:color(display-p3 0.3529 0.7686 0.5490);fill-opacity:1;stroke:#5AC48C;stroke:color(display-p3 0.3529 0.7686 0.5490);stroke-opacity:1;" stroke-width="0.906069"></rect><foreignObject x="512.46" y="1016.79" width="25.3716" height="25.3719"></foreignObject><rect data-figma-bg-blur-radius="9.06069" x="-0.340063" y="0.54299" width="6.34249" height="6.34249" rx="3.17124" transform="matrix(-0.974598 0.223963 0.223963 0.974598 527.073 1025.23)" fill="#5AC48C" stroke="#5AC48C" style="fill:#5AC48C;fill:color(display-p3 0.3529 0.7686 0.5490);fill-opacity:1;stroke:#5AC48C;stroke:color(display-p3 0.3529 0.7686 0.5490);stroke-opacity:1;" stroke-width="0.906069"></rect><foreignObject x="349.726" y="788.977" width="25.3714" height="25.3719"></foreignObject><rect data-figma-bg-blur-radius="9.06069" x="-0.340063" y="0.54299" width="6.34249" height="6.34249" rx="3.17124" transform="matrix(-0.974598 0.223963 0.223963 0.974598 364.339 797.409)" fill="#5AC48C" stroke="#5AC48C" style="fill:#5AC48C;fill:color(display-p3 0.3529 0.7686 0.5490);fill-opacity:1;stroke:#5AC48C;stroke:color(display-p3 0.3529 0.7686 0.5490);stroke-opacity:1;" stroke-width="0.906069"></rect><g opacity="0.6"><rect x="-0.453035" y="0.453035" width="549.984" height="549.984" rx="274.992" transform="matrix(-1 8.74228e-08 8.74228e-08 1 993.109 448.037)" fill="#6BE8EE" fill-opacity="0.08" stroke="#5AC48C" style="fill:#6BE8EE;fill:color(display-p3 0.4196 0.9098 0.9333);fill-opacity:0.08;stroke:#5AC48C;stroke:color(display-p3 0.3529 0.7686 0.5490);stroke-opacity:1;" stroke-width="0.906069"></rect><foreignObject x="981.331" y="710.796" width="25.3699" height="25.3699"></foreignObject><rect data-figma-bg-blur-radius="9.06069" x="-0.453035" y="0.453035" width="6.34249" height="6.34249" rx="3.17124" transform="matrix(-1 8.74228e-08 8.74228e-08 1 996.734 719.857)" fill="#5AC48C" stroke="#5AC48C" style="fill:#5AC48C;fill:color(display-p3 0.3529 0.7686 0.5490);fill-opacity:1;stroke:#5AC48C;stroke:color(display-p3 0.3529 0.7686 0.5490);stroke-opacity:1;" stroke-width="0.906069"></rect><foreignObject x="900.038" y="516.645" width="25.3699" height="25.3699"></foreignObject><rect data-figma-bg-blur-radius="9.06069" x="-0.453035" y="0.453035" width="6.34249" height="6.34249" rx="3.17124" transform="matrix(-1 8.74228e-08 8.74228e-08 1 915.441 525.705)" fill="#5AC48C" stroke="#5AC48C" style="fill:#5AC48C;fill:color(display-p3 0.3529 0.7686 0.5490);fill-opacity:1;stroke:#5AC48C;stroke:color(display-p3 0.3529 0.7686 0.5490);stroke-opacity:1;" stroke-width="0.906069"></rect><foreignObject x="900.038" y="904.95" width="25.3699" height="25.3699"></foreignObject><rect data-figma-bg-blur-radius="9.06069" x="-0.453035" y="0.453035" width="6.34249" height="6.34249" rx="3.17124" transform="matrix(-1 8.74228e-08 8.74228e-08 1 915.441 914.011)" fill="#5AC48C" stroke="#5AC48C" style="fill:#5AC48C;fill:color(display-p3 0.3529 0.7686 0.5490);fill-opacity:1;stroke:#5AC48C;stroke:color(display-p3 0.3529 0.7686 0.5490);stroke-opacity:1;" stroke-width="0.906069"></rect><foreignObject x="705.884" y="435.352" width="25.3699" height="25.3699"></foreignObject><rect data-figma-bg-blur-radius="9.06069" x="-0.453035" y="0.453035" width="6.34249" height="6.34249" rx="3.17124" transform="matrix(-1 8.74228e-08 8.74228e-08 1 721.287 444.413)" fill="#5AC48C" stroke="#5AC48C" style="fill:#5AC48C;fill:color(display-p3 0.3529 0.7686 0.5490);fill-opacity:1;stroke:#5AC48C;stroke:color(display-p3 0.3529 0.7686 0.5490);stroke-opacity:1;" stroke-width="0.906069"></rect><foreignObject x="705.884" y="986.242" width="25.3699" height="25.3699"></foreignObject><rect data-figma-bg-blur-radius="9.06069" x="-0.453035" y="0.453035" width="6.34249" height="6.34249" rx="3.17124" transform="matrix(-1 8.74228e-08 8.74228e-08 1 721.287 995.303)" fill="#5AC48C" stroke="#5AC48C" style="fill:#5AC48C;fill:color(display-p3 0.3529 0.7686 0.5490);fill-opacity:1;stroke:#5AC48C;stroke:color(display-p3 0.3529 0.7686 0.5490);stroke-opacity:1;" stroke-width="0.906069"></rect><foreignObject x="511.731" y="516.645" width="25.3699" height="25.3699"></foreignObject><rect data-figma-bg-blur-radius="9.06069" x="-0.453035" y="0.453035" width="6.34249" height="6.34249" rx="3.17124" transform="matrix(-1 8.74228e-08 8.74228e-08 1 527.134 525.706)" fill="#5AC48C" stroke="#5AC48C" style="fill:#5AC48C;fill:color(display-p3 0.3529 0.7686 0.5490);fill-opacity:1;stroke:#5AC48C;stroke:color(display-p3 0.3529 0.7686 0.5490);stroke-opacity:1;" stroke-width="0.906069"></rect><foreignObject x="511.731" y="904.95" width="25.3699" height="25.3699"></foreignObject><rect data-figma-bg-blur-radius="9.06069" x="-0.453035" y="0.453035" width="6.34249" height="6.34249" rx="3.17124" transform="matrix(-1 8.74228e-08 8.74228e-08 1 527.134 914.01)" fill="#5AC48C" stroke="#5AC48C" style="fill:#5AC48C;fill:color(display-p3 0.3529 0.7686 0.5490);fill-opacity:1;stroke:#5AC48C;stroke:color(display-p3 0.3529 0.7686 0.5490);stroke-opacity:1;" stroke-width="0.906069"></rect><foreignObject x="430.438" y="710.796" width="25.3699" height="25.3699"></foreignObject><rect data-figma-bg-blur-radius="9.06069" x="-0.453035" y="0.453035" width="6.34249" height="6.34249" rx="3.17124" transform="matrix(-1 8.74228e-08 8.74228e-08 1 445.841 719.857)" fill="#5AC48C" stroke="#5AC48C" style="fill:#5AC48C;fill:color(display-p3 0.3529 0.7686 0.5490);fill-opacity:1;stroke:#5AC48C;stroke:color(display-p3 0.3529 0.7686 0.5490);stroke-opacity:1;" stroke-width="0.906069"></rect></g></g><defs><clipPath id="bgblur_0_66_71_clip_path" transform="translate(-1134.2 -705.58)"><rect x="-0.533207" y="0.533207" width="7.46489" height="7.46489" rx="3.73245" transform="matrix(-1 8.74228e-08 8.74228e-08 1 1152.33 716.244)"></rect></clipPath><clipPath id="bgblur_1_66_71_clip_path" transform="translate(-1007.58 -401.364)"><rect x="-0.533207" y="0.533207" width="7.46489" height="7.46489" rx="3.73245" transform="matrix(-1 8.74228e-08 8.74228e-08 1 1025.71 412.028)"></rect></clipPath><clipPath id="bgblur_2_66_71_clip_path" transform="translate(-1007.58 -1009.8)"><rect x="-0.533207" y="0.533207" width="7.46489" height="7.46489" rx="3.73245" transform="matrix(-1 8.74228e-08 8.74228e-08 1 1025.71 1020.46)"></rect></clipPath><clipPath id="bgblur_3_66_71_clip_path" transform="translate(-703.365 -274.748)"><rect x="-0.533207" y="0.533207" width="7.46489" height="7.46489" rx="3.73245" transform="matrix(-1 8.74228e-08 8.74228e-08 1 721.494 285.413)"></rect></clipPath><clipPath id="bgblur_4_66_71_clip_path" transform="translate(-703.365 -1136.41)"><rect x="-0.533207" y="0.533207" width="7.46489" height="7.46489" rx="3.73245" transform="matrix(-1 8.74228e-08 8.74228e-08 1 721.494 1147.07)"></rect></clipPath><clipPath id="bgblur_5_66_71_clip_path" transform="translate(-399.148 -401.364)"><rect x="-0.533207" y="0.533207" width="7.46489" height="7.46489" rx="3.73245" transform="matrix(-1 8.74228e-08 8.74228e-08 1 417.277 412.028)"></rect></clipPath><clipPath id="bgblur_6_66_71_clip_path" transform="translate(-399.148 -1009.8)"><rect x="-0.533207" y="0.533207" width="7.46489" height="7.46489" rx="3.73245" transform="matrix(-1 8.74228e-08 8.74228e-08 1 417.277 1020.46)"></rect></clipPath><clipPath id="bgblur_7_66_71_clip_path" transform="translate(-272.535 -705.58)"><rect x="-0.533207" y="0.533207" width="7.46489" height="7.46489" rx="3.73245" transform="matrix(-1 8.74228e-08 8.74228e-08 1 290.664 716.244)"></rect></clipPath><clipPath id="bgblur_8_66_71_clip_path" transform="translate(-1016.59 -788.77)"><rect x="-0.653042" y="0.377034" width="7.46489" height="7.46489" rx="3.73245" transform="matrix(-0.965926 -0.258819 -0.258819 0.965926 1035.56 800.528)"></rect></clipPath><clipPath id="bgblur_9_66_71_clip_path" transform="translate(-983.321 -543.281)"><rect x="-0.653042" y="0.377034" width="7.46489" height="7.46489" rx="3.73245" transform="matrix(-0.965926 -0.258819 -0.258819 0.965926 1002.29 555.04)"></rect></clipPath><clipPath id="bgblur_10_66_71_clip_path" transform="translate(-865.034 -984.73)"><rect x="-0.653042" y="0.377034" width="7.46489" height="7.46489" rx="3.73245" transform="matrix(-0.965926 -0.258819 -0.258819 0.965926 884.003 996.489)"></rect></clipPath><clipPath id="bgblur_11_66_71_clip_path" transform="translate(-787.358 -391.72)"><rect x="-0.653042" y="0.377034" width="7.46489" height="7.46489" rx="3.73245" transform="matrix(-0.965926 -0.258819 -0.258819 0.965926 806.327 403.479)"></rect></clipPath><clipPath id="bgblur_12_66_71_clip_path" transform="translate(-619.545 -1018.01)"><rect x="-0.653042" y="0.377034" width="7.46489" height="7.46489" rx="3.73245" transform="matrix(-0.965926 -0.258819 -0.258819 0.965926 638.514 1029.76)"></rect></clipPath><clipPath id="bgblur_13_66_71_clip_path" transform="translate(-541.87 -424.996)"><rect x="-0.653042" y="0.377034" width="7.46489" height="7.46489" rx="3.73245" transform="matrix(-0.965926 -0.258819 -0.258819 0.965926 560.839 436.754)"></rect></clipPath><clipPath id="bgblur_14_66_71_clip_path" transform="translate(-423.585 -866.445)"><rect x="-0.653042" y="0.377034" width="7.46489" height="7.46489" rx="3.73245" transform="matrix(-0.965926 -0.258819 -0.258819 0.965926 442.553 878.203)"></rect></clipPath><clipPath id="bgblur_15_66_71_clip_path" transform="translate(-390.309 -620.956)"><rect x="-0.653042" y="0.377034" width="7.46489" height="7.46489" rx="3.73245" transform="matrix(-0.965926 -0.258819 -0.258819 0.965926 409.278 632.715)"></rect></clipPath><clipPath id="bgblur_16_66_71_clip_path" transform="translate(-1405.47 -698.419)"><rect x="-0.880618" y="0.880618" width="12.3287" height="12.3287" rx="6.16433" transform="matrix(-1 8.74228e-08 8.74228e-08 1 1435.41 716.032)"></rect></clipPath><clipPath id="bgblur_17_66_71_clip_path" transform="translate(-1196.36 -195.992)"><rect x="-0.880618" y="0.880618" width="12.3287" height="12.3287" rx="6.16433" transform="matrix(-1 8.74228e-08 8.74228e-08 1 1226.3 213.604)"></rect></clipPath><clipPath id="bgblur_18_66_71_clip_path" transform="translate(-1196.36 -1200.85)"><rect x="-0.880618" y="0.880618" width="12.3287" height="12.3287" rx="6.16433" transform="matrix(-1 8.74228e-08 8.74228e-08 1 1226.3 1218.46)"></rect></clipPath><clipPath id="bgblur_19_66_71_clip_path" transform="translate(-693.929 13.1207)"><rect x="-0.880618" y="0.880618" width="12.3287" height="12.3287" rx="6.16433" transform="matrix(-1 8.74228e-08 8.74228e-08 1 723.87 4.4917)"></rect></clipPath><clipPath id="bgblur_20_66_71_clip_path" transform="translate(-693.929 -1409.96)"><rect x="-0.880618" y="0.880618" width="12.3287" height="12.3287" rx="6.16433" transform="matrix(-1 8.74228e-08 8.74228e-08 1 723.87 1427.57)"></rect></clipPath><clipPath id="bgblur_21_66_71_clip_path" transform="translate(-191.501 -195.992)"><rect x="-0.880618" y="0.880618" width="12.3287" height="12.3287" rx="6.16433" transform="matrix(-1 8.74228e-08 8.74228e-08 1 221.442 213.604)"></rect></clipPath><clipPath id="bgblur_22_66_71_clip_path" transform="translate(-191.501 -1200.85)"><rect x="-0.880618" y="0.880618" width="12.3287" height="12.3287" rx="6.16433" transform="matrix(-1 8.74228e-08 8.74228e-08 1 221.442 1218.46)"></rect></clipPath><clipPath id="bgblur_23_66_71_clip_path" transform="translate(17.6124 -698.419)"><rect x="-0.880618" y="0.880618" width="12.3287" height="12.3287" rx="6.16433" transform="matrix(-1 8.74228e-08 8.74228e-08 1 12.3286 716.032)"></rect></clipPath><clipPath id="bgblur_24_66_71_clip_path" transform="translate(-1216.3 -888.972)"><rect x="-1.17817" y="0.548342" width="12.8647" height="12.8647" rx="6.43233" transform="matrix(-0.939442 -0.342707 -0.342707 0.939442 1249.36 909.946)"></rect></clipPath><clipPath id="bgblur_25_66_71_clip_path" transform="translate(-1196.36 -462.506)"><rect x="-1.17817" y="0.548342" width="12.8647" height="12.8647" rx="6.43233" transform="matrix(-0.939442 -0.342707 -0.342707 0.939442 1229.42 483.48)"></rect></clipPath><clipPath id="bgblur_26_66_71_clip_path" transform="translate(-926.44 -1202.42)"><rect x="-1.17817" y="0.548342" width="12.8647" height="12.8647" rx="6.43233" transform="matrix(-0.939442 -0.342707 -0.342707 0.939442 959.499 1223.39)"></rect></clipPath><clipPath id="bgblur_27_66_71_clip_path" transform="translate(-882.91 -172.642)"><rect x="-1.17817" y="0.548342" width="12.8647" height="12.8647" rx="6.43233" transform="matrix(-0.939442 -0.342707 -0.342707 0.939442 915.97 193.616)"></rect></clipPath><clipPath id="bgblur_28_66_71_clip_path" transform="translate(-499.973 -1222.36)"><rect x="-1.17817" y="0.548342" width="12.8647" height="12.8647" rx="6.43233" transform="matrix(-0.939442 -0.342707 -0.342707 0.939442 533.032 1243.34)"></rect></clipPath><clipPath id="bgblur_29_66_71_clip_path" transform="translate(-456.445 -192.585)"><rect x="-1.17817" y="0.548342" width="12.8647" height="12.8647" rx="6.43233" transform="matrix(-0.939442 -0.342707 -0.342707 0.939442 489.505 213.559)"></rect></clipPath><clipPath id="bgblur_30_66_71_clip_path" transform="translate(-186.523 -932.501)"><rect x="-1.17817" y="0.548342" width="12.8647" height="12.8647" rx="6.43233" transform="matrix(-0.939442 -0.342707 -0.342707 0.939442 219.583 953.475)"></rect></clipPath><clipPath id="bgblur_31_66_71_clip_path" transform="translate(-166.582 -506.035)"><rect x="-1.17817" y="0.548342" width="12.8647" height="12.8647" rx="6.43233" transform="matrix(-0.939442 -0.342707 -0.342707 0.939442 199.641 527.01)"></rect></clipPath><clipPath id="bgblur_32_66_71_clip_path" transform="translate(-1063.23 -625.014)"><rect x="-0.340063" y="0.54299" width="6.34249" height="6.34249" rx="3.17124" transform="matrix(-0.974598 0.223963 0.223963 0.974598 1077.85 633.445)"></rect></clipPath><clipPath id="bgblur_33_66_71_clip_path" transform="translate(-900.499 -397.199)"><rect x="-0.340063" y="0.54299" width="6.34249" height="6.34249" rx="3.17124" transform="matrix(-0.974598 0.223963 0.223963 0.974598 915.112 405.631)"></rect></clipPath><clipPath id="bgblur_34_66_71_clip_path" transform="translate(-1016.28 -901.015)"><rect x="-0.340063" y="0.54299" width="6.34249" height="6.34249" rx="3.17124" transform="matrix(-0.974598 0.223963 0.223963 0.974598 1030.89 909.446)"></rect></clipPath><clipPath id="bgblur_35_66_71_clip_path" transform="translate(-624.497 -350.241)"><rect x="-0.340063" y="0.54299" width="6.34249" height="6.34249" rx="3.17124" transform="matrix(-0.974598 0.223963 0.223963 0.974598 639.11 358.673)"></rect></clipPath><clipPath id="bgblur_36_66_71_clip_path" transform="translate(-788.46 -1063.75)"><rect x="-0.340063" y="0.54299" width="6.34249" height="6.34249" rx="3.17124" transform="matrix(-0.974598 0.223963 0.223963 0.974598 803.073 1072.18)"></rect></clipPath><clipPath id="bgblur_37_66_71_clip_path" transform="translate(-396.681 -512.975)"><rect x="-0.340063" y="0.54299" width="6.34249" height="6.34249" rx="3.17124" transform="matrix(-0.974598 0.223963 0.223963 0.974598 411.294 521.407)"></rect></clipPath><clipPath id="bgblur_38_66_71_clip_path" transform="translate(-512.46 -1016.79)"><rect x="-0.340063" y="0.54299" width="6.34249" height="6.34249" rx="3.17124" transform="matrix(-0.974598 0.223963 0.223963 0.974598 527.073 1025.23)"></rect></clipPath><clipPath id="bgblur_39_66_71_clip_path" transform="translate(-349.726 -788.977)"><rect x="-0.340063" y="0.54299" width="6.34249" height="6.34249" rx="3.17124" transform="matrix(-0.974598 0.223963 0.223963 0.974598 364.339 797.409)"></rect></clipPath><clipPath id="bgblur_40_66_71_clip_path" transform="translate(-981.331 -710.796)"><rect x="-0.453035" y="0.453035" width="6.34249" height="6.34249" rx="3.17124" transform="matrix(-1 8.74228e-08 8.74228e-08 1 996.734 719.857)"></rect></clipPath><clipPath id="bgblur_41_66_71_clip_path" transform="translate(-900.038 -516.645)"><rect x="-0.453035" y="0.453035" width="6.34249" height="6.34249" rx="3.17124" transform="matrix(-1 8.74228e-08 8.74228e-08 1 915.441 525.705)"></rect></clipPath><clipPath id="bgblur_42_66_71_clip_path" transform="translate(-900.038 -904.95)"><rect x="-0.453035" y="0.453035" width="6.34249" height="6.34249" rx="3.17124" transform="matrix(-1 8.74228e-08 8.74228e-08 1 915.441 914.011)"></rect></clipPath><clipPath id="bgblur_43_66_71_clip_path" transform="translate(-705.884 -435.352)"><rect x="-0.453035" y="0.453035" width="6.34249" height="6.34249" rx="3.17124" transform="matrix(-1 8.74228e-08 8.74228e-08 1 721.287 444.413)"></rect></clipPath><clipPath id="bgblur_44_66_71_clip_path" transform="translate(-705.884 -986.242)"><rect x="-0.453035" y="0.453035" width="6.34249" height="6.34249" rx="3.17124" transform="matrix(-1 8.74228e-08 8.74228e-08 1 721.287 995.303)"></rect></clipPath><clipPath id="bgblur_45_66_71_clip_path" transform="translate(-511.731 -516.645)"><rect x="-0.453035" y="0.453035" width="6.34249" height="6.34249" rx="3.17124" transform="matrix(-1 8.74228e-08 8.74228e-08 1 527.134 525.706)"></rect></clipPath><clipPath id="bgblur_46_66_71_clip_path" transform="translate(-511.731 -904.95)"><rect x="-0.453035" y="0.453035" width="6.34249" height="6.34249" rx="3.17124" transform="matrix(-1 8.74228e-08 8.74228e-08 1 527.134 914.01)"></rect></clipPath><clipPath id="bgblur_47_66_71_clip_path" transform="translate(-430.438 -710.796)"><rect x="-0.453035" y="0.453035" width="6.34249" height="6.34249" rx="3.17124" transform="matrix(-1 8.74228e-08 8.74228e-08 1 445.841 719.857)"></rect></clipPath></defs></svg>