<svg xmlns="http://www.w3.org/2000/svg" width="1920" height="1220" viewBox="0 0 1920 1220" fill="none"><path opacity="0.4" d="M2373.1 1219.41H1398.3C1387.74 1219.41 1377.62 1215.21 1370.17 1207.75L1248.94 1086.47C1233.41 1070.94 1233.42 1045.76 1248.95 1030.23L2278.77 0.406712" stroke="url(#paint0_linear_1_2465)" stroke-width="1.15029"></path><path opacity="0.4" d="M1717.52 387.042L1339.78 764.093C1314.69 789.138 1332.43 832.015 1367.88 832.015H1750.83C1761.36 832.015 1771.47 827.835 1778.93 820.391L2156.66 443.341C2181.75 418.296 2164.01 375.418 2128.56 375.418H1745.62C1735.08 375.418 1724.98 379.599 1717.52 387.042Z" stroke="url(#paint1_linear_1_2465)" stroke-width="1.15029"></path><path opacity="0.4" d="M-454 1219.41H520.8C531.351 1219.41 541.47 1215.21 548.93 1207.75L670.155 1086.47C685.681 1070.94 685.678 1045.76 670.148 1030.23L-359.676 0.406712" stroke="url(#paint2_linear_1_2465)" stroke-width="1.15029"></path><path opacity="0.4" d="M201.577 387.042L579.311 764.093C604.401 789.138 586.664 832.015 551.212 832.015H168.267C157.731 832.015 147.625 827.835 140.168 820.391L-237.565 443.341C-262.656 418.296 -244.918 375.418 -209.467 375.418H173.478C184.014 375.418 194.12 379.599 201.577 387.042Z" stroke="url(#paint3_linear_1_2465)" stroke-width="1.15029"></path><g style="mix-blend-mode:color-dodge"><path opacity="0.4" d="M2373.1 1219.41H1398.3C1387.74 1219.41 1377.62 1215.21 1370.17 1207.75L1248.94 1086.47C1233.41 1070.94 1233.42 1045.76 1248.95 1030.23L2278.77 0.406712" stroke="url(#paint4_linear_1_2465)" stroke-width="1.15029"></path><path opacity="0.4" d="M1717.52 387.042L1339.78 764.093C1314.69 789.138 1332.43 832.015 1367.88 832.015H1750.83C1761.36 832.015 1771.47 827.835 1778.93 820.391L2156.66 443.341C2181.75 418.296 2164.01 375.418 2128.56 375.418H1745.62C1735.08 375.418 1724.98 379.599 1717.52 387.042Z" stroke="url(#paint5_linear_1_2465)" stroke-width="1.15029"></path><path opacity="0.4" d="M-454 1219.41H520.8C531.351 1219.41 541.47 1215.21 548.93 1207.75L670.155 1086.47C685.681 1070.94 685.678 1045.76 670.148 1030.23L-359.676 0.406712" stroke="url(#paint6_linear_1_2465)" stroke-width="1.15029"></path><path opacity="0.4" d="M201.577 387.042L579.311 764.093C604.401 789.138 586.664 832.015 551.212 832.015H168.267C157.731 832.015 147.625 827.835 140.168 820.391L-237.565 443.341C-262.656 418.296 -244.918 375.418 -209.467 375.418H173.478C184.014 375.418 194.12 379.599 201.577 387.042Z" stroke="url(#paint7_linear_1_2465)" stroke-width="1.15029"></path></g><defs><linearGradient id="paint0_linear_1_2465" x1="2213.59" y1="35.7401" x2="1296.31" y2="46.4044" gradientUnits="userSpaceOnUse"><stop stop-color="#6BE8EE" style="stop-color:#6BE8EE;stop-color:color(display-p3 0.4196 0.9098 0.9333);stop-opacity:1;"></stop><stop offset="0.534504" stop-color="#254F51" style="stop-color:#254F51;stop-color:color(display-p3 0.1447 0.3080 0.3158);stop-opacity:1;"></stop><stop offset="1" stop-color="#182C42" style="stop-color:#182C42;stop-color:color(display-p3 0.0922 0.1724 0.2606);stop-opacity:1;"></stop></linearGradient><linearGradient id="paint1_linear_1_2465" x1="2092.79" y1="388.653" x2="1334.56" y2="408.117" gradientUnits="userSpaceOnUse"><stop stop-color="#6BE8EE" style="stop-color:#6BE8EE;stop-color:color(display-p3 0.4196 0.9098 0.9333);stop-opacity:1;"></stop><stop offset="0.534504" stop-color="#254F51" style="stop-color:#254F51;stop-color:color(display-p3 0.1447 0.3080 0.3158);stop-opacity:1;"></stop><stop offset="1" stop-color="#182C42" style="stop-color:#182C42;stop-color:color(display-p3 0.0922 0.1724 0.2606);stop-opacity:1;"></stop></linearGradient><linearGradient id="paint2_linear_1_2465" x1="-294.492" y1="35.7401" x2="622.785" y2="46.4044" gradientUnits="userSpaceOnUse"><stop stop-color="#6BE8EE" style="stop-color:#6BE8EE;stop-color:color(display-p3 0.4196 0.9098 0.9333);stop-opacity:1;"></stop><stop offset="0.534504" stop-color="#254F51" style="stop-color:#254F51;stop-color:color(display-p3 0.1447 0.3080 0.3158);stop-opacity:1;"></stop><stop offset="1" stop-color="#182C42" style="stop-color:#182C42;stop-color:color(display-p3 0.0922 0.1724 0.2606);stop-opacity:1;"></stop></linearGradient><linearGradient id="paint3_linear_1_2465" x1="-173.692" y1="388.653" x2="584.534" y2="408.117" gradientUnits="userSpaceOnUse"><stop stop-color="#6BE8EE" style="stop-color:#6BE8EE;stop-color:color(display-p3 0.4196 0.9098 0.9333);stop-opacity:1;"></stop><stop offset="0.534504" stop-color="#254F51" style="stop-color:#254F51;stop-color:color(display-p3 0.1447 0.3080 0.3158);stop-opacity:1;"></stop><stop offset="1" stop-color="#182C42" style="stop-color:#182C42;stop-color:color(display-p3 0.0922 0.1724 0.2606);stop-opacity:1;"></stop></linearGradient><linearGradient id="paint4_linear_1_2465" x1="2213.59" y1="35.7401" x2="1296.31" y2="46.4044" gradientUnits="userSpaceOnUse"><stop stop-color="#6BE8EE" style="stop-color:#6BE8EE;stop-color:color(display-p3 0.4196 0.9098 0.9333);stop-opacity:1;"></stop><stop offset="0.534504" stop-color="#254F51" style="stop-color:#254F51;stop-color:color(display-p3 0.1447 0.3080 0.3158);stop-opacity:1;"></stop><stop offset="1" stop-color="#182C42" style="stop-color:#182C42;stop-color:color(display-p3 0.0922 0.1724 0.2606);stop-opacity:1;"></stop></linearGradient><linearGradient id="paint5_linear_1_2465" x1="2092.79" y1="388.653" x2="1334.56" y2="408.117" gradientUnits="userSpaceOnUse"><stop stop-color="#6BE8EE" style="stop-color:#6BE8EE;stop-color:color(display-p3 0.4196 0.9098 0.9333);stop-opacity:1;"></stop><stop offset="0.534504" stop-color="#254F51" style="stop-color:#254F51;stop-color:color(display-p3 0.1447 0.3080 0.3158);stop-opacity:1;"></stop><stop offset="1" stop-color="#182C42" style="stop-color:#182C42;stop-color:color(display-p3 0.0922 0.1724 0.2606);stop-opacity:1;"></stop></linearGradient><linearGradient id="paint6_linear_1_2465" x1="-294.492" y1="35.7401" x2="622.785" y2="46.4044" gradientUnits="userSpaceOnUse"><stop stop-color="#6BE8EE" style="stop-color:#6BE8EE;stop-color:color(display-p3 0.4196 0.9098 0.9333);stop-opacity:1;"></stop><stop offset="0.534504" stop-color="#254F51" style="stop-color:#254F51;stop-color:color(display-p3 0.1447 0.3080 0.3158);stop-opacity:1;"></stop><stop offset="1" stop-color="#182C42" style="stop-color:#182C42;stop-color:color(display-p3 0.0922 0.1724 0.2606);stop-opacity:1;"></stop></linearGradient><linearGradient id="paint7_linear_1_2465" x1="-173.692" y1="388.653" x2="584.534" y2="408.117" gradientUnits="userSpaceOnUse"><stop stop-color="#6BE8EE" style="stop-color:#6BE8EE;stop-color:color(display-p3 0.4196 0.9098 0.9333);stop-opacity:1;"></stop><stop offset="0.534504" stop-color="#254F51" style="stop-color:#254F51;stop-color:color(display-p3 0.1447 0.3080 0.3158);stop-opacity:1;"></stop><stop offset="1" stop-color="#182C42" style="stop-color:#182C42;stop-color:color(display-p3 0.0922 0.1724 0.2606);stop-opacity:1;"></stop></linearGradient></defs></svg>