<svg xmlns="http://www.w3.org/2000/svg" width="1005" height="25" viewBox="0 0 1005 25" fill="none"><g opacity="0.5"><path fill-rule="evenodd" clip-rule="evenodd" d="M496.024 5.61623L489.79 20.6868C489.398 21.6024 489.202 22.3062 489.202 22.8C489.202 23.192 489.37 23.5262 489.706 23.8015C490.041 24.0918 490.776 24.2664 491.911 24.3252V25H484.5V24.3242C485.494 24.1497 486.131 23.9173 486.41 23.626C486.998 23.0455 487.656 21.8759 488.384 20.1174L496.654 0H497.262L505.449 20.3358C506.107 21.9338 506.708 22.9951 507.254 23.5178C507.771 23.9826 508.52 24.2514 509.5 24.3242V25H500.223V24.3252C500.685 24.3102 501.069 24.2598 501.377 24.1721C501.685 24.0853 501.929 23.9761 502.111 23.8454C502.292 23.7147 502.422 23.5654 502.499 23.3983C502.576 23.2312 502.615 23.0455 502.615 22.8429C502.615 22.3053 502.384 21.4699 501.923 20.3377L496.024 5.61623Z" fill="url(#paint0_linear_1_2482)"></path><path d="M0 12.8571H475.473V14.2857H0V12.8571Z" fill="url(#paint1_linear_1_2482)"></path><path d="M518.527 12.8571H1005V14.2857H518.527V12.8571Z" fill="url(#paint2_linear_1_2482)"></path></g><defs><linearGradient id="paint0_linear_1_2482" x1="0" y1="12.5" x2="1005" y2="12.5" gradientUnits="userSpaceOnUse"><stop stop-color="#6BE8EE" style="stop-color:#6BE8EE;stop-color:color(display-p3 0.4196 0.9098 0.9333);stop-opacity:1;"></stop><stop offset="1" stop-color="#5AC48C" style="stop-color:#5AC48C;stop-color:color(display-p3 0.3529 0.7686 0.5490);stop-opacity:1;"></stop></linearGradient><linearGradient id="paint1_linear_1_2482" x1="0" y1="12.5" x2="1005" y2="12.5" gradientUnits="userSpaceOnUse"><stop stop-color="#6BE8EE" stop-opacity="0" style="stop-color:none;stop-opacity:0;"></stop><stop offset="0.504808" stop-color="#62D6BD" style="stop-color:#62D6BD;stop-color:color(display-p3 0.3860 0.8385 0.7393);stop-opacity:1;"></stop><stop offset="1" stop-color="#5AC48C" stop-opacity="0" style="stop-color:none;stop-opacity:0;"></stop></linearGradient><linearGradient id="paint2_linear_1_2482" x1="0" y1="12.5" x2="1005" y2="12.5" gradientUnits="userSpaceOnUse"><stop stop-color="#6BE8EE" stop-opacity="0" style="stop-color:none;stop-opacity:0;"></stop><stop offset="0.504808" stop-color="#62D6BD" style="stop-color:#62D6BD;stop-color:color(display-p3 0.3860 0.8385 0.7393);stop-opacity:1;"></stop><stop offset="1" stop-color="#5AC48C" stop-opacity="0" style="stop-color:none;stop-opacity:0;"></stop></linearGradient></defs></svg>